<?xml version="1.0" encoding="UTF-8"?>
<!DOCTYPE svg PUBLIC "-//W3C//DTD SVG 1.1//EN" "http://www.w3.org/Graphics/SVG/1.1/DTD/svg11.dtd">
<!-- Creator: CorelDRAW -->
<svg xmlns="http://www.w3.org/2000/svg" xml:space="preserve" width="8.26772in" height="11.6929in" version="1.1" style="shape-rendering:geometricPrecision; text-rendering:geometricPrecision; image-rendering:optimizeQuality; fill-rule:evenodd; clip-rule:evenodd"
viewBox="0 0 8267.72 11692.91"
 xmlns:xlink="http://www.w3.org/1999/xlink"
 xmlns:xodm="http://www.corel.com/coreldraw/odm/2003">
 <defs>
  <style type="text/css">
   <![CDATA[
    .fil0 {fill:#373535}
   ]]>
  </style>
 </defs>
 <g id="Layer_x0020_1">
  <metadata id="CorelCorpID_0Corel-Layer"/>
  <path class="fil0" d="M4170.42 5703.57c0,-134.98 238.69,-244.41 581.7,-244.41 79.81,0 156.12,5.93 226.22,16.72 178.82,79.1 287.56,183.38 287.56,297.7 0,26.08 -5.72,51.63 -16.57,76.48 -113.29,59.46 -293.83,97.93 -497.2,97.93 -343,0 -581.7,-109.43 -581.7,-244.41zm-660.44 244.41c-203.37,0 -383.91,-38.47 -497.2,-97.93 -10.85,-24.85 -16.57,-50.41 -16.57,-76.48 0,-114.31 108.73,-218.6 287.56,-297.7 70.1,-10.8 146.4,-16.72 226.22,-16.72 343,0 581.7,109.43 581.7,244.41 0,134.98 -238.69,244.41 -581.7,244.41zm-213.7 128.74c470.73,-23.4 834.77,-181.55 834.77,-373.15 0,191.6 364.04,349.75 834.77,373.15 -207.38,88.77 -504.58,144.4 -834.77,144.4 -330.2,0 -627.4,-55.63 -834.77,-144.4zm834.77 -373.15c0,-143.23 -203.44,-267.77 -502.81,-331.29 151.56,-29.59 322.24,-46.25 502.81,-46.25 180.57,0 351.26,16.65 502.81,46.25 -299.37,63.52 -502.81,188.06 -502.81,331.29zm0 -418.49c-746.18,0 -1351.07,251.43 -1351.07,561.59 0,310.16 604.89,561.59 1351.07,561.59 746.18,0 1351.07,-251.43 1351.07,-561.59 0,-310.16 -604.89,-561.59 -1351.07,-561.59z"/>
 </g>
</svg>
